<svg width="50" height="50" viewBox="0 0 50 50" fill="none" xmlns="http://www.w3.org/2000/svg">
<g clip-path="url(#clip0)">
<path d="M36.2843 27.7396L38.0696 26.0239C38.3246 25.7788 38.3328 25.3733 38.0879 25.118L36.6745 23.6655L33.9968 26.2719L35.3791 27.7213C35.6242 27.9765 36.0293 27.9847 36.2843 27.7396Z" fill="black"/>
<path d="M36.3244 25.9912L37.6666 24.6848L36.6747 23.6655L33.9971 26.2719L35.3794 27.7213C35.6243 27.9765 36.0295 27.9847 36.2846 27.7396L36.8853 27.1623L36.3138 26.5632C36.16 26.4019 36.1646 26.1467 36.3244 25.9912Z" fill="black"/>
<path d="M14.8162 0.867295C14.5713 0.61212 14.1661 0.603916 13.9111 0.848936L12.1258 2.56466C11.8708 2.80978 11.8626 3.21524 12.1075 3.47062L26.2893 18.2335L29.0117 15.6435L14.8162 0.867295Z" fill="black"/>
<path d="M14.0609 3.47062C13.816 3.21544 13.8242 2.80987 14.0793 2.56466L15.3104 1.38146L14.8165 0.867295C14.5716 0.61212 14.1664 0.603916 13.9113 0.848936L12.1261 2.56466C11.8711 2.80978 11.8629 3.21524 12.1077 3.47062L26.2894 18.2335L27.31 17.2625L14.0609 3.47062Z" fill="black"/>
<path d="M36.5254 22.5499L37.6913 21.4294C37.843 21.2836 37.8479 21.0423 37.7023 20.8905L31.8909 14.8345C31.7452 14.6826 31.5041 14.6777 31.3524 14.8235L30.1865 15.944L36.5254 22.5499Z" fill="#FD6D05"/>
<path d="M32.7139 15.6925L31.8907 14.8345C31.745 14.6826 31.504 14.6777 31.3522 14.8235L30.1863 15.944L31.2734 17.0768L32.7139 15.6925Z" fill="#FD6D05"/>
<path d="M23.4359 32.7472H30.1182C30.4223 30.3484 31.3559 28.0169 32.9134 26.021L26.5322 19.3711C23.998 21.1913 20.9933 22.0431 18.0197 21.936C17.6774 21.9237 17.402 22.2151 17.4323 22.5566C17.807 26.7766 20.0742 30.4696 23.4359 32.7472Z" fill="#FD6D05"/>
<path d="M17.5259 23.3466C21.3449 23.432 24.6814 22.4119 27.5511 20.4329L26.5323 19.3711C23.9981 21.1913 20.9934 22.0431 18.0199 21.936C17.6775 21.9237 17.4022 22.2151 17.4325 22.5566C17.4558 22.8206 17.4873 23.084 17.5259 23.3466Z" fill="#FD6D05"/>
<path d="M17.4323 22.5566C17.8066 26.7736 20.0776 30.4719 23.4359 32.7472H30.1183C30.1221 32.7175 30.127 32.688 30.1309 32.6584C30.1327 32.6454 30.1339 32.6323 30.1356 32.6193C29.8774 32.6933 26.0538 32.2977 23.0208 29.1371C21.1035 27.1392 20.0364 24.6364 19.8092 22.0764C19.8031 22.0082 19.8119 21.9425 19.8319 21.8818C19.2374 21.9386 18.6243 21.9579 18.0198 21.9361C17.6811 21.9238 17.4019 22.2141 17.4323 22.5566Z" fill="#FD6D05"/>
<path d="M19.9766 23.2548C19.9016 22.8644 19.844 22.4713 19.809 22.0764C19.8029 22.0082 19.8117 21.9425 19.8317 21.8818C19.8316 21.8818 19.8315 21.8818 19.8314 21.8818C19.2296 21.9393 18.6174 21.9576 18.0195 21.9361C18.0194 21.9361 18.0193 21.9361 18.0192 21.9361C17.6822 21.9243 17.4014 22.2123 17.4321 22.5567C17.4322 22.5577 17.4323 22.5588 17.4324 22.5598C17.4516 22.7757 17.4819 23.0413 17.5259 23.3466C17.7298 23.3498 18.6786 23.3987 19.9766 23.2548Z" fill="#FD6D05"/>
<path d="M26.1397 18.0464L28.8418 15.4496C29.1043 15.1971 29.5219 15.2056 29.7743 15.4684L36.8311 22.8223C37.0831 23.0848 37.0746 23.5019 36.8123 23.754L34.1102 26.3509C33.8476 26.6034 33.43 26.5949 33.1777 26.3321L26.1208 18.9782C25.8689 18.7156 25.8773 18.2986 26.1397 18.0464Z" fill="#FD6D05"/>
<path d="M28.0646 18.978C27.8126 18.7155 27.8211 18.2984 28.0834 18.0462L30.2496 15.9644L29.7736 15.4684C29.5214 15.2056 29.1039 15.1971 28.8412 15.4495L26.1392 18.0464C25.8769 18.2986 25.8684 18.7156 26.1203 18.9782L33.1771 26.3321C33.4293 26.5949 33.8468 26.6034 34.1096 26.3509L34.6453 25.836L28.0646 18.978Z" fill="#FD6D05"/>
<path d="M38.749 32.7227C37.2544 32.7227 12.3778 32.7227 11.4473 32.7227C8.04133 32.7227 5.2804 36.4124 5.2804 40.9639C5.2804 45.5153 8.04143 49.2051 11.4473 49.2051H38.749C42.1548 49.2051 44.9159 45.5153 44.9159 40.9639C44.9159 36.4124 42.1548 32.7227 38.749 32.7227Z" fill="#FFCC00"/>
<path d="M38.7485 47.2519H11.4468C8.28828 47.2519 5.68622 44.078 5.32441 39.9873C4.88798 44.9263 7.77197 49.2052 11.4468 49.2052H38.7485C42.1544 49.2052 44.9154 45.5154 44.9154 40.964C44.9154 40.6333 44.8992 40.3079 44.8708 39.9873C44.5092 44.0781 41.9069 47.2519 38.7485 47.2519Z" fill="black"/>
<path d="M11.4472 49.206C14.8533 49.206 17.6145 45.5161 17.6145 40.9644C17.6145 36.4126 14.8533 32.7227 11.4472 32.7227C8.04102 32.7227 5.27979 36.4126 5.27979 40.9644C5.27979 45.5161 8.04102 49.206 11.4472 49.206Z" fill="#FFCC00"/>
<path d="M11.4465 49.2051C12.966 49.2051 14.3561 48.4694 15.4308 47.2519H11.4465C8.28805 47.2519 5.686 44.078 5.32418 39.9873C5.04645 43.131 6.10943 45.9217 7.7567 47.568C8.7858 48.5962 10.0629 49.2051 11.4465 49.2051Z" fill="black"/>
<path d="M10.8158 46.4096C12.8361 46.4096 14.4739 43.9715 14.4739 40.9641C14.4739 37.9566 12.8361 35.5186 10.8158 35.5186C8.7955 35.5186 7.15771 37.9566 7.15771 40.9641C7.15771 43.9715 8.7955 46.4096 10.8158 46.4096Z" fill="#FFCC00"/>
<path d="M10.355 43.2175C11.191 43.2175 11.8687 42.2088 11.8687 40.9644C11.8687 39.7201 11.191 38.7114 10.355 38.7114C9.519 38.7114 8.84131 39.7201 8.84131 40.9644C8.84131 42.2088 9.519 43.2175 10.355 43.2175Z" fill="#FFCC00"/>
<path d="M7.59036 36.7674C4.98802 40.6412 6.87454 47.2045 10.7851 47.2045C13.301 47.2045 15.1757 44.3645 15.1757 41.0265C15.1757 35.2753 10.2257 32.8448 7.59036 36.7674ZM10.7851 45.7395C9.19925 45.7395 7.85941 43.5812 7.85941 41.0265C7.85941 38.4717 9.19925 36.3134 10.7851 36.3134C12.3709 36.3134 13.7108 38.4717 13.7108 41.0265C13.7108 43.5812 12.3709 45.7395 10.7851 45.7395Z" fill="black"/>
<path d="M10.3239 38.0405C9.06438 38.0405 8.07776 39.3521 8.07776 41.0264C8.07776 42.7007 9.06448 44.0122 10.3239 44.0122C11.5834 44.0122 12.57 42.7007 12.57 41.0264C12.57 39.3521 11.5835 38.0405 10.3239 38.0405ZM10.3239 42.5471C10.0053 42.5471 9.5427 41.9547 9.5427 41.0262C9.5427 40.0977 10.0053 39.5053 10.3239 39.5053C10.6424 39.5053 11.1051 40.0977 11.1051 41.0262C11.1051 41.9547 10.6424 42.5471 10.3239 42.5471Z" fill="black"/>
<path d="M38.8136 36.8506C39.2182 36.8506 39.546 36.5227 39.546 36.1182C39.546 35.7137 39.2182 35.3857 38.8136 35.3857H34.8809C34.4763 35.3857 34.1484 35.7137 34.1484 36.1182C34.1484 36.5227 34.4763 36.8506 34.8809 36.8506H38.8136Z" fill="black"/>
<path d="M26.8699 36.8506H31.2331C31.6377 36.8506 31.9655 36.5227 31.9655 36.1182C31.9655 35.7137 31.6377 35.3857 31.2331 35.3857H26.8699C26.4653 35.3857 26.1375 35.7137 26.1375 36.1182C26.1375 36.5227 26.4653 36.8506 26.8699 36.8506Z" fill="black"/>
<path d="M22.3853 35.3853H20.3831C19.9785 35.3853 19.6506 35.7132 19.6506 36.1177C19.6506 36.5222 19.9785 36.8501 20.3831 36.8501H22.3853C22.7899 36.8501 23.1177 36.5222 23.1177 36.1177C23.1177 35.7132 22.7899 35.3853 22.3853 35.3853Z" fill="black"/>
<path d="M40.2524 38.6499H29.3171C28.9125 38.6499 28.5847 38.9778 28.5847 39.3823C28.5847 39.7868 28.9125 40.1147 29.3171 40.1147H40.2524C40.657 40.1147 40.9848 39.7868 40.9848 39.3823C40.9848 38.9778 40.6569 38.6499 40.2524 38.6499Z" fill="black"/>
<path d="M21.6169 38.6499C21.2124 38.6499 20.8845 38.9778 20.8845 39.3823C20.8845 39.7868 21.2124 40.1147 21.6169 40.1147H25.637C26.0416 40.1147 26.3694 39.7868 26.3694 39.3823C26.3694 38.9778 26.0416 38.6499 25.637 38.6499H21.6169Z" fill="black"/>
<path d="M40.8818 42.647C40.8818 42.2425 40.5539 41.9146 40.1493 41.9146H33.9337C33.5291 41.9146 33.2013 42.2425 33.2013 42.647C33.2013 43.0515 33.5291 43.3794 33.9337 43.3794H40.1493C40.5538 43.3795 40.8818 43.0516 40.8818 42.647Z" fill="black"/>
<path d="M21.6169 43.3794H30.1393C30.5439 43.3794 30.8717 43.0515 30.8717 42.647C30.8717 42.2425 30.5439 41.9146 30.1393 41.9146H21.6169C21.2124 41.9146 20.8845 42.2425 20.8845 42.647C20.8845 43.0515 21.2124 43.3794 21.6169 43.3794Z" fill="black"/>
<path d="M35.0924 45.1787C34.6878 45.1787 34.36 45.5066 34.36 45.9111C34.36 46.3156 34.6878 46.6436 35.0924 46.6436H38.8137C39.2183 46.6436 39.5461 46.3156 39.5461 45.9111C39.5461 45.5066 39.2183 45.1787 38.8137 45.1787H35.0924Z" fill="black"/>
<path d="M27.0942 45.1787H20.3831C19.9785 45.1787 19.6506 45.5066 19.6506 45.9111C19.6506 46.3156 19.9785 46.6436 20.3831 46.6436H27.0942C27.4988 46.6436 27.8266 46.3156 27.8266 45.9111C27.8266 45.5066 27.4988 45.1787 27.0942 45.1787Z" fill="black"/>
<path d="M30.6451 46.6436H31.3552C31.7598 46.6436 32.0876 46.3156 32.0876 45.9111C32.0876 45.5066 31.7598 45.1787 31.3552 45.1787H30.6451C30.2406 45.1787 29.9127 45.5066 29.9127 45.9111C29.9127 46.3156 30.2406 46.6436 30.6451 46.6436Z" fill="black"/>
<path d="M44.8651 42.0115C44.4651 41.9485 44.0904 42.2213 44.0273 42.6208C43.4864 46.0475 41.2533 48.5347 38.7175 48.5347H29.2957C28.8911 48.5347 28.5632 48.8627 28.5632 49.2671C28.5632 49.6716 28.8911 49.9996 29.2957 49.9996H38.7175C40.3487 49.9996 41.929 49.2517 43.1673 47.8937C44.3455 46.6016 45.1648 44.81 45.4744 42.8492C45.5374 42.4497 45.2646 42.0746 44.8651 42.0115Z" fill="black"/>
<path d="M25.8776 48.535H15.2076C19.3569 44.9813 19.3375 37.0548 15.2076 33.5174C15.603 33.5174 38.2696 33.5174 38.7175 33.5174C41.2533 33.5174 43.4864 36.0047 44.0273 39.4314C44.0904 39.8309 44.4651 40.1039 44.8651 40.0407C45.2646 39.9776 45.5373 39.6026 45.4742 39.2029C45.1647 37.242 44.3452 35.4505 43.1672 34.1584C41.9288 32.8004 40.3487 32.0525 38.7174 32.0525H30.9452C31.285 30.2881 31.9865 28.614 33.003 27.1381C33.2621 27.2717 33.553 27.3234 33.8623 27.2739L34.8195 28.2706C35.3454 28.8183 36.2141 28.8343 36.7603 28.3098L38.5454 26.5954C39.0912 26.0712 39.1089 25.2006 38.5847 24.6546L37.6491 23.6804C37.7345 23.3338 37.6854 22.9608 37.5002 22.6439L38.1665 22.0041C38.6103 21.5779 38.6246 20.8737 38.1983 20.4299L32.3869 14.3786C31.9526 13.9263 31.2472 13.9297 30.8127 14.3466L30.1716 14.9623C29.8459 14.6696 29.4049 14.5452 28.9629 14.6353L15.3136 0.421942C14.7888 -0.124738 13.92 -0.142707 13.3729 0.382684L11.5877 2.09704C11.0406 2.62253 11.0229 3.49069 11.5485 4.03796L25.2201 18.2746C25.1482 18.6299 25.2147 18.983 25.3957 19.2783C23.3124 20.5801 20.8734 21.2718 18.4023 21.2577C18.0263 21.2552 17.6114 21.1753 17.1616 21.5315C16.7145 21.8842 16.6343 22.3077 16.6886 22.8423C17.0352 26.2613 18.6025 29.5683 21.304 32.0527H11.4157C11.0625 32.0527 10.7137 32.0865 10.3715 32.1529C4.75335 33.2439 2.53811 42.2999 6.59231 47.454C7.88489 49.0976 9.59075 50 11.4157 50H25.8776C26.2822 50 26.61 49.672 26.61 49.2675C26.61 48.8631 26.2822 48.535 25.8776 48.535ZM35.8122 27.1893L35.0904 26.4376C35.2537 26.2806 36.5314 25.0537 36.7424 24.851L37.4643 25.6027L35.8122 27.1893ZM31.5742 15.6468L36.8985 21.1911L36.5146 21.5597L31.1904 16.0155L31.5742 15.6468ZM29.2418 16.1015C30.9816 17.9132 35.8908 23.0252 36.1967 23.3437C33.8635 25.5843 34.1396 25.3192 33.6413 25.7975L26.6864 18.5552C28.0057 17.2885 27.8998 17.3903 29.2418 16.1015ZM12.6688 3.08981L14.3209 1.50329L27.758 15.4954C27.5932 15.6537 26.2922 16.903 26.1059 17.082L12.6688 3.08981ZM26.4018 20.3738L31.9235 26.1236C30.7019 27.8395 29.8711 29.8065 29.4875 31.8819C25.2299 31.1967 21.2382 27.5585 20.5645 22.5691C22.6408 22.2668 24.6438 21.5195 26.4018 20.3738ZM18.1478 22.7195C18.3856 22.7252 18.8298 22.7215 19.1057 22.7096C19.6009 26.4528 21.8356 30.0465 25.6028 32.0525H23.6323C20.6602 29.9651 18.5595 26.6493 18.1478 22.7195ZM11.4157 48.5349C8.60638 48.5349 6.28811 45.5744 6.00931 41.7928C5.68216 37.3524 8.21233 33.5174 11.4157 33.5174C14.4122 33.5174 16.8501 36.8859 16.8501 41.0262C16.8501 45.1666 14.4122 48.5349 11.4157 48.5349Z" fill="black"/>
</g>
<defs>
<clipPath id="clip0">
<rect width="50" height="50" fill="white"/>
</clipPath>
</defs>
</svg>
